<svg width="128" height="128" viewBox="0 0 128 128" fill="none" xmlns="http://www.w3.org/2000/svg">
<path d="M85.642 113.12C87.1863 113.12 88.4384 114.372 88.4384 115.916C88.4038 117.396 87.1653 118.711 85.642 118.712H64.974C63.4297 118.712 62.1776 117.46 62.1776 115.916C62.2467 114.328 63.2032 113.13 64.974 113.12H85.642ZM34.0916 107.284C35.6358 107.284 36.8879 108.536 36.8879 110.08C36.8575 111.726 35.6697 112.866 34.0916 112.877H13.4232C11.8791 112.877 10.6269 111.624 10.6269 110.08C10.6613 108.601 11.8811 107.304 13.4232 107.284H34.0916ZM11.2347 48.9259C13.4499 48.9259 15.2467 50.7225 15.2467 52.9379C15.2505 55.265 13.4514 56.9362 11.2347 56.9498H7.58742C5.37227 56.9498 3.57544 55.1528 3.57544 52.9379C3.57868 50.654 5.51918 48.943 7.58742 48.9259H11.2347ZM56.7069 9.29236C58.5207 9.29236 59.9895 10.761 59.9895 12.5749C59.9362 14.4792 58.5353 15.8455 56.7069 15.8574H45.7647C43.9509 15.8574 42.4824 14.3888 42.4824 12.5749C42.5031 10.8349 44.2172 9.30366 45.7647 9.29236H56.7069Z" fill="#F8D46E"/>
<path d="M7.6053 32.8726C5.39012 32.8726 3.59333 34.6695 3.59333 36.8846C3.58038 39.136 5.53689 40.8515 7.6053 40.8965H31.4348C33.6499 40.8965 35.4467 42.6935 35.4467 44.9085C35.4165 47.2357 33.6515 48.9069 31.4348 48.9205H27.0577C24.8426 48.9205 23.0458 50.7175 23.0458 52.9328C23.0957 55.2607 24.668 56.8719 27.0577 56.9448H31.4344C33.6496 56.9448 35.4464 58.7418 35.4464 60.9568C35.4305 63.2086 33.9071 64.9234 31.4344 64.9691H14.1705C11.9553 64.9691 10.1585 66.7661 10.1585 68.9811C10.2084 71.3083 11.9924 73.0371 14.1705 72.9931H31.4348C33.6499 72.9931 35.4467 74.7901 35.4467 77.0054C35.3345 79.2763 33.5033 80.9716 31.4348 81.0174H17.9225C15.6733 81.0174 13.7647 82.858 13.8058 85.1073C13.8471 87.2862 15.627 89.0417 17.8178 89.0417H52.942V32.8182L7.6053 32.8726Z" fill="#F8D46E"/>
<path d="M36.4692 60.3606C36.4692 71.1724 40.1441 81.1253 46.3109 89.0419H53.1439V32.8185L45.435 32.8422C39.7987 40.5608 36.4692 50.0715 36.4692 60.3604V60.3606Z" fill="black" fill-opacity="0.1"/>
<path d="M82.9497 101.893C105.856 101.893 124.425 83.3239 124.425 60.418C124.425 37.512 105.856 18.9431 82.9497 18.9431C60.0438 18.9431 41.4749 37.512 41.4749 60.418C41.4749 83.3239 60.0438 101.893 82.9497 101.893Z" fill="#F0F0F0"/>
<path d="M41.4749 60.418C41.4749 37.5121 60.0438 18.9431 82.9497 18.9431C105.856 18.9431 124.425 37.5121 124.425 60.418H41.4749Z" fill="#FE4566"/>
<path d="M41.5965 57.2C41.515 58.2619 41.4735 59.3348 41.4735 60.4178C41.4735 61.7443 41.5357 63.0561 41.6576 64.3508H124.239C124.361 63.0561 124.423 61.7443 124.423 60.4178C124.423 59.3348 124.382 58.2619 124.3 57.2H41.5972H41.5965Z" fill="#606060"/>
<path d="M82.9497 74.362C90.6509 74.362 96.8939 68.119 96.8939 60.4179C96.8939 52.7168 90.6509 46.4738 82.9497 46.4738C75.2486 46.4738 69.0056 52.7168 69.0056 60.4179C69.0056 68.119 75.2486 74.362 82.9497 74.362Z" fill="#606060"/>
<path d="M69.0056 60.4179C69.0056 68.119 75.2487 74.362 82.9497 74.362C87.4916 74.362 91.5265 72.1903 94.0725 68.8287C93.361 68.9406 92.6313 68.9989 91.8883 68.9989C84.1872 68.9989 77.9442 62.7558 77.9442 55.0547C77.9442 51.8955 78.9946 48.9819 80.7655 46.6439C74.102 47.6922 69.0056 53.4597 69.0056 60.4179Z" fill="black" fill-opacity="0.1"/>
<path d="M82.9498 67.9263C87.0966 67.9263 90.4582 64.5647 90.4582 60.4179C90.4582 56.2712 87.0966 52.9095 82.9498 52.9095C78.803 52.9095 75.4414 56.2712 75.4414 60.4179C75.4414 64.5647 78.803 67.9263 82.9498 67.9263Z" fill="#F0F0F0"/>
<path d="M75.4413 60.418C75.4413 64.5648 78.8029 67.9264 82.9497 67.9264C85.4357 67.9264 87.6392 66.7182 89.0057 64.8572C88.4394 64.9938 87.8483 65.066 87.2402 65.066C83.0934 65.066 79.7318 61.7044 79.7318 57.5576C79.7318 55.8969 80.271 54.3619 81.1841 53.1184C77.8894 53.9125 75.4413 56.8794 75.4413 60.418Z" fill="black" fill-opacity="0.1"/>
<path d="M41.4749 60.4179C41.4749 83.3238 60.0438 101.893 82.9497 101.893C90.5789 101.893 97.7269 99.833 103.868 96.239C100.934 96.8972 97.8817 97.2447 94.7486 97.2447C71.8427 97.2447 53.2737 78.6758 53.2737 55.7699C53.2737 40.4932 61.5333 27.1454 73.8302 19.9478C55.3114 24.1027 41.4749 40.6441 41.4749 60.4179Z" fill="black" fill-opacity="0.1"/>
</svg>
