<svg width="128" height="128" viewBox="0 0 128 128" fill="none" xmlns="http://www.w3.org/2000/svg">
<rect width="128" height="128" rx="16" fill="white"/>
<g clip-path="url(#clip0_666_1380)">
<path d="M63.7156 0C12.5156 0 0 13.0266 0 64C0 114.973 12.5156 128 63.7156 128C114.916 128 128 115.54 128 64C128 13.0266 115.484 0 63.7156 0Z" fill="white"/>
</g>
<path d="M79.2517 98.6203C80.3399 98.6203 81.2223 99.5027 81.2223 100.591C81.198 101.634 80.3252 102.561 79.2517 102.562H64.6864C63.5982 102.562 62.7158 101.679 62.7158 100.591C62.7644 99.4717 63.4385 98.6276 64.6864 98.6203H79.2517ZM42.9229 94.5077C44.011 94.5077 44.8935 95.3901 44.8935 96.4783C44.872 97.6379 44.0349 98.4417 42.9229 98.449H28.3573C27.2691 98.449 26.3867 97.5663 26.3867 96.4783C26.4109 95.4359 27.2706 94.5217 28.3573 94.5077H42.9229ZM26.815 53.3814C28.3761 53.3814 29.6424 54.6475 29.6424 56.2087C29.645 57.8487 28.3772 59.0265 26.815 59.0361H24.2447C22.6836 59.0361 21.4174 57.7697 21.4174 56.2087C21.4196 54.5993 22.7872 53.3935 24.2447 53.3814H26.815ZM58.8604 25.4507C60.1386 25.4507 61.1737 26.4856 61.1737 27.764C61.1362 29.106 60.1489 30.0688 58.8604 30.0772H51.1491C49.8709 30.0772 48.8361 29.0423 48.8361 27.764C48.8506 26.5378 50.0586 25.4586 51.1491 25.4507H58.8604Z" fill="#F8D46E"/>
<path d="M24.2573 42.0683C22.6962 42.0683 21.43 43.3347 21.43 44.8957C21.4209 46.4823 22.7997 47.6913 24.2573 47.723H41.0505C42.6116 47.723 43.8779 48.9893 43.8779 50.5503C43.8565 52.1904 42.6127 53.3681 41.0505 53.3777H37.9659C36.4048 53.3777 35.1386 54.6441 35.1386 56.2053C35.1738 57.8458 36.2818 58.9812 37.9659 59.0326H41.0503C42.6114 59.0326 43.8776 60.299 43.8776 61.86C43.8664 63.4468 42.7928 64.6553 41.0503 64.6875H28.884C27.3229 64.6875 26.0566 65.9539 26.0566 67.5149C26.0918 69.1549 27.349 70.3732 28.884 70.3422H41.0505C42.6116 70.3422 43.8779 71.6086 43.8779 73.1698C43.7988 74.7702 42.5083 75.9649 41.0505 75.9971H31.5281C29.9431 75.9971 28.598 77.2943 28.627 78.8794C28.6561 80.4149 29.9104 81.6521 31.4543 81.6521H56.2072V42.03L24.2573 42.0683Z" fill="#F8D46E"/>
<path d="M44.5985 61.4399C44.5985 69.0592 47.1882 76.0732 51.5342 81.6523H56.3496V42.0303L50.9169 42.047C46.9448 47.4865 44.5985 54.1889 44.5985 61.4398V61.4399Z" fill="black" fill-opacity="0.1"/>
<path d="M77.3543 90.7086C93.4967 90.7086 106.583 77.6227 106.583 61.4803C106.583 45.3379 93.4967 32.252 77.3543 32.252C61.212 32.252 48.126 45.3379 48.126 61.4803C48.126 77.6227 61.212 90.7086 77.3543 90.7086Z" fill="#F0F0F0"/>
<path d="M48.126 61.4803C48.126 45.3379 61.212 32.252 77.3543 32.252C93.4967 32.252 106.583 45.3379 106.583 61.4803H48.126Z" fill="#FE4566"/>
<path d="M48.2117 59.2126C48.1542 59.961 48.125 60.7172 48.125 61.4804C48.125 62.4152 48.1688 63.3396 48.2548 64.252H106.452C106.538 63.3396 106.582 62.4152 106.582 61.4804C106.582 60.7172 106.552 59.961 106.495 59.2126H48.2122H48.2117Z" fill="#606060"/>
<path d="M77.3544 71.3071C82.7815 71.3071 87.1811 66.9075 87.1811 61.4803C87.1811 56.0532 82.7815 51.6536 77.3544 51.6536C71.9272 51.6536 67.5276 56.0532 67.5276 61.4803C67.5276 66.9075 71.9272 71.3071 77.3544 71.3071Z" fill="#606060"/>
<path d="M67.5276 61.4803C67.5276 66.9074 71.9272 71.307 77.3544 71.307C80.5551 71.307 83.3986 69.7766 85.1928 67.4076C84.6914 67.4864 84.1772 67.5275 83.6536 67.5275C78.2264 67.5275 73.8268 63.1279 73.8268 57.7007C73.8268 55.4744 74.5671 53.4211 75.8151 51.7734C71.1191 52.5122 67.5276 56.5767 67.5276 61.4803Z" fill="black" fill-opacity="0.1"/>
<path d="M77.3543 66.7716C80.2767 66.7716 82.6457 64.4026 82.6457 61.4803C82.6457 58.558 80.2767 56.189 77.3543 56.189C74.432 56.189 72.063 58.558 72.063 61.4803C72.063 64.4026 74.432 66.7716 77.3543 66.7716Z" fill="#F0F0F0"/>
<path d="M72.063 61.4804C72.063 64.4027 74.432 66.7717 77.3543 66.7717C79.1063 66.7717 80.6591 65.9203 81.6222 64.6088C81.2231 64.7051 80.8065 64.756 80.3779 64.756C77.4556 64.756 75.0866 62.387 75.0866 59.4646C75.0866 58.2942 75.4666 57.2125 76.1101 56.3362C73.7882 56.8958 72.063 58.9866 72.063 61.4804Z" fill="black" fill-opacity="0.1"/>
<path d="M48.126 61.4803C48.126 77.6226 61.212 90.7086 77.3543 90.7086C82.7308 90.7086 87.7682 89.257 92.096 86.7242C90.0281 87.1881 87.8773 87.433 85.6693 87.433C69.5269 87.433 56.4409 74.347 56.4409 58.2047C56.4409 47.4388 62.2617 38.0323 70.9276 32.96C57.8769 35.8881 48.126 47.5452 48.126 61.4803V61.4803Z" fill="black" fill-opacity="0.1"/>
<defs>
<clipPath id="clip0_666_1380">
<rect width="128" height="128" fill="white"/>
</clipPath>
</defs>
</svg>
