<svg width="827" height="246" viewBox="0 0 827 246" fill="none" xmlns="http://www.w3.org/2000/svg">
<path d="M359.396 188.843C349.924 188.843 341.092 188.63 332.9 188.203C324.708 187.777 317.625 186.838 311.652 185.387C304.825 184.022 299.919 181.974 296.932 179.243C294.031 176.427 292.58 172.63 292.58 167.851C292.58 165.547 293.007 163.158 293.86 160.683C294.713 158.209 296.292 155.649 298.596 153.003C300.9 150.273 304.271 147.499 308.708 144.683C311.78 142.55 315.535 139.947 319.972 136.875C324.495 133.718 329.359 130.305 334.564 126.635C339.769 122.966 344.975 119.339 350.18 115.755C355.471 112.171 360.335 108.843 364.772 105.771C369.295 102.699 373.092 100.182 376.164 98.2192C380.687 95.6592 383.545 93.6965 384.74 92.3312C385.935 90.9658 386.532 89.6858 386.532 88.4912C386.532 87.0405 385.508 86.1445 383.46 85.8032C381.497 85.3765 378.852 85.1632 375.524 85.1632C370.831 85.1632 365.668 85.2912 360.036 85.5472C354.489 85.8032 348.857 86.1445 343.14 86.5712C337.508 86.9125 332.175 87.2112 327.14 87.4672C322.105 87.7232 317.839 87.8512 314.34 87.8512C312.036 87.8512 309.945 87.5525 308.068 86.9552C306.276 86.3578 304.868 85.4192 303.844 84.1392C302.82 82.8592 302.308 81.2378 302.308 79.2752C302.308 76.9712 303.247 75.0512 305.124 73.5152C307.087 71.9792 309.86 70.6992 313.444 69.6752C317.113 68.6512 321.465 67.8405 326.5 67.2432C331.62 66.5605 337.423 66.0058 343.908 65.5792C347.065 65.3232 350.905 65.1098 355.428 64.9392C360.036 64.6832 364.815 64.4272 369.764 64.1712C374.713 63.9152 379.407 63.7018 383.844 63.5312C388.367 63.3605 392.121 63.2752 395.108 63.2752C403.556 63.2752 410.041 64.5978 414.564 67.2432C419.087 69.8885 421.348 73.9418 421.348 79.4032C421.348 83.2432 420.367 87.0832 418.404 90.9232C416.441 94.6778 412.26 98.6885 405.86 102.955C400.569 106.625 394.639 110.763 388.068 115.371C381.497 119.979 374.884 124.587 368.228 129.195C361.572 133.803 355.428 138.027 349.796 141.867C344.249 145.622 339.812 148.609 336.484 150.827C333.583 152.705 331.577 154.326 330.468 155.691C329.359 157.057 328.804 158.422 328.804 159.787C328.804 161.238 329.7 162.305 331.492 162.987C333.369 163.67 336.612 164.139 341.22 164.395C345.913 164.566 352.569 164.651 361.188 164.651C370.233 164.651 378.127 164.481 384.868 164.139C391.695 163.713 397.881 163.499 403.428 163.499C408.548 163.499 412.345 164.31 414.82 165.931C417.295 167.553 418.532 169.899 418.532 172.971C418.532 175.958 417.209 178.475 414.564 180.523C411.919 182.571 408.036 184.193 402.916 185.387C397.881 186.667 391.695 187.563 384.356 188.075C377.103 188.587 368.783 188.843 359.396 188.843ZM507.606 193.835C493.27 193.835 480.854 191.659 470.358 187.307C459.862 182.955 451.755 176.257 446.038 167.211C440.321 158.081 437.462 146.475 437.462 132.395C437.462 120.705 439.382 110.507 443.222 101.803C447.147 93.0138 452.523 85.6752 459.35 79.7872C466.177 73.8992 474.07 69.5045 483.03 66.6032C491.99 63.6165 501.547 62.1232 511.702 62.1232C518.614 62.1232 525.142 62.8485 531.286 64.2992C537.515 65.7498 543.019 68.0112 547.798 71.0832C552.662 74.0698 556.459 77.9098 559.19 82.6032C561.921 87.2965 563.286 92.8858 563.286 99.3712C563.286 106.283 561.835 111.915 558.934 116.267C556.033 120.534 552.065 123.905 547.03 126.379C541.995 128.769 536.278 130.561 529.878 131.755C523.563 132.865 516.95 133.718 510.038 134.315C506.539 134.913 502.401 135.425 497.622 135.851C492.843 136.193 488.193 136.491 483.67 136.747C479.233 136.918 475.777 137.003 473.302 137.003C470.742 137.003 468.993 137.345 468.054 138.027C467.115 138.71 466.646 139.947 466.646 141.739C466.646 143.873 467.243 146.39 468.438 149.291C469.633 152.107 471.339 154.881 473.558 157.611C477.654 162.646 482.39 166.017 487.766 167.723C493.227 169.345 499.926 170.155 507.862 170.155C514.774 170.155 521.089 169.345 526.806 167.723C532.523 166.017 537.643 164.353 542.166 162.731C546.774 161.025 550.913 160.171 554.582 160.171C557.91 160.171 560.513 160.811 562.39 162.091C564.353 163.286 565.334 165.675 565.334 169.259C565.334 172.502 563.841 175.617 560.854 178.603C557.953 181.59 553.899 184.193 548.694 186.411C543.489 188.715 537.387 190.507 530.39 191.787C523.393 193.153 515.798 193.835 507.606 193.835ZM497.494 122.667C504.406 122.667 510.849 122.027 516.822 120.747C522.795 119.382 527.617 117.121 531.286 113.963C535.041 110.721 536.918 106.283 536.918 100.651C536.918 93.9952 534.486 89.0032 529.622 85.6752C524.758 82.2618 517.931 80.5552 509.142 80.5552C503.937 80.5552 498.859 81.4938 493.91 83.3712C488.961 85.1632 484.566 87.6805 480.726 90.9232C476.886 94.1658 473.814 97.8352 471.51 101.931C469.206 106.027 468.054 110.422 468.054 115.115C468.054 117.505 468.993 119.254 470.87 120.363C472.833 121.387 475.947 122.027 480.214 122.283C484.566 122.539 490.326 122.667 497.494 122.667ZM606.356 188.459C602.345 188.459 599.145 187.649 596.756 186.027C594.452 184.491 592.831 182.017 591.892 178.603C590.953 175.105 590.484 170.71 590.484 165.419C590.484 162.518 590.527 159.019 590.612 154.923C590.783 150.827 590.996 146.39 591.252 141.611C591.508 136.747 591.807 131.841 592.148 126.891C592.489 121.942 592.873 117.206 593.3 112.683C593.727 108.075 594.153 103.937 594.58 100.267C595.007 96.5978 595.433 93.6538 595.86 91.4352C597.567 86.0592 600.084 82.0485 603.412 79.4032C606.825 76.7578 611.092 75.4352 616.212 75.4352C621.076 75.4352 624.617 77.2698 626.836 80.9392C629.055 84.6085 630.164 89.8992 630.164 96.8112C630.164 99.3712 630.079 102.827 629.908 107.179C629.737 111.531 629.481 116.353 629.14 121.643C628.799 126.934 628.415 132.353 627.988 137.899C627.647 143.446 627.177 148.779 626.58 153.899C626.068 158.934 625.556 163.414 625.044 167.339C624.532 171.179 623.935 174.081 623.252 176.043C621.545 180.651 619.284 183.851 616.468 185.643C613.737 187.521 610.367 188.459 606.356 188.459ZM615.06 55.5952C607.039 55.5952 601.535 54.2298 598.548 51.4992C595.561 48.7685 594.068 45.6965 594.068 42.2832C594.068 37.9312 595.647 34.3045 598.804 31.4032C601.961 28.4165 605.844 26.1552 610.452 24.6192C615.06 23.0832 619.668 22.3152 624.276 22.3152C627.604 22.3152 630.676 22.8698 633.492 23.9792C636.308 25.0885 638.527 26.7952 640.148 29.0992C641.855 31.4032 642.708 34.4325 642.708 38.1872C642.708 42.2832 641.428 45.6112 638.868 48.1712C636.308 50.7312 632.937 52.6085 628.756 53.8032C624.575 54.9978 620.009 55.5952 615.06 55.5952ZM735.678 191.787C725.779 191.787 716.222 190.678 707.006 188.459C697.875 186.241 689.683 182.699 682.43 177.835C675.262 172.971 669.587 166.657 665.406 158.891C661.225 151.041 659.134 141.483 659.134 130.219C659.134 117.846 661.139 107.051 665.15 97.8352C669.246 88.5338 674.878 80.8112 682.046 74.6672C689.214 68.4378 697.491 63.7872 706.878 60.7152C716.35 57.5578 726.462 55.9792 737.214 55.9792C746.942 55.9792 756.457 57.2165 765.758 59.6912C775.059 62.1658 783.422 66.0485 790.846 71.3392C798.27 76.6298 804.158 83.4992 808.51 91.9472C812.947 100.31 815.166 110.422 815.166 122.283C815.166 131.243 813.332 139.862 809.662 148.139C806.078 156.417 800.83 163.841 793.918 170.411C787.091 176.897 778.771 182.059 768.958 185.899C759.23 189.825 748.137 191.787 735.678 191.787ZM734.526 163.499C743.23 163.499 750.611 162.177 756.67 159.531C762.729 156.801 767.635 153.259 771.39 148.907C775.23 144.47 778.003 139.649 779.71 134.443C781.502 129.238 782.398 124.075 782.398 118.955C782.398 111.787 780.99 105.729 778.174 100.779C775.443 95.7445 771.774 91.6912 767.166 88.6192C762.643 85.5472 757.566 83.3285 751.934 81.9632C746.302 80.5125 740.542 79.7872 734.654 79.7872C726.974 79.7872 719.721 81.4512 712.894 84.7792C706.067 88.0218 700.521 92.9712 696.254 99.6272C692.073 106.198 689.982 114.518 689.982 124.587C689.982 132.779 691.646 139.819 694.974 145.707C698.387 151.51 703.422 155.947 710.078 159.019C716.734 162.006 724.883 163.499 734.526 163.499Z" fill="black"/>
<path d="M249.562 106.283L249.549 106.241L249.536 106.198C244.953 91.4424 238.668 78.2253 230.578 66.6834L230.545 66.6356L230.511 66.5881C222.436 55.2931 213.173 45.6712 202.692 37.8347C192.343 29.9758 181.272 23.9495 169.492 19.848L165.402 31.5959L169.492 19.848C157.87 15.8018 146.247 13.6285 134.671 13.4588C124.089 13.3037 113.242 15.7683 102.268 20.3468C91.2021 24.9632 80.5724 31.5996 70.3632 40.0758C59.9954 48.5644 50.6863 58.816 42.3961 70.7224C33.8108 82.8382 26.9449 96.3889 21.7484 111.297C16.4265 126.565 13.6314 142.963 13.2529 160.402C13.0307 170.635 19.4636 177.52 26.6892 181.38L26.8031 181.441L26.9181 181.5C33.0959 184.638 40.6891 186.749 49.1832 188.18C57.2427 189.699 66.322 190.892 76.381 191.781L76.4571 191.787L76.5333 191.793C86.6188 192.561 97.1311 193.023 108.067 193.183C133.665 193.558 155.59 193.577 173.819 193.236L173.863 193.235L173.906 193.234C192.133 192.765 207.307 191.44 219.173 189.122C228.839 187.251 237.632 184.09 244.272 178.735C251.403 172.985 255.503 165.101 255.704 155.816C256.094 137.875 254.114 121.318 249.562 106.283Z" fill="#C6DA93"/>
<path d="M249.562 106.283L249.549 106.241L249.536 106.198C244.953 91.4424 238.668 78.2253 230.578 66.6834L230.545 66.6356L230.511 66.5881C222.436 55.2931 213.173 45.6712 202.692 37.8347C192.343 29.9758 181.272 23.9495 169.492 19.848L165.402 31.5959L169.492 19.848C157.87 15.8018 146.247 13.6285 134.671 13.4588C124.089 13.3037 113.242 15.7683 102.268 20.3468C91.2021 24.9632 80.5724 31.5996 70.3632 40.0758C59.9954 48.5644 50.6863 58.816 42.3961 70.7224C33.8108 82.8382 26.9449 96.3889 21.7484 111.297C16.4265 126.565 13.6314 142.963 13.2529 160.402C13.0307 170.635 19.4636 177.52 26.6892 181.38L26.8031 181.441L26.9181 181.5C33.0959 184.638 40.6891 186.749 49.1832 188.18C57.2427 189.699 66.322 190.892 76.381 191.781L76.4571 191.787L76.5333 191.793C86.6188 192.561 97.1311 193.023 108.067 193.183C133.665 193.558 155.59 193.577 173.819 193.236L173.863 193.235L173.906 193.234C192.133 192.765 207.307 191.44 219.173 189.122C228.839 187.251 237.632 184.09 244.272 178.735C251.403 172.985 255.503 165.101 255.704 155.816C256.094 137.875 254.114 121.318 249.562 106.283Z" fill="url(#paint0_radial_241_175)" fill-opacity="0.2"/>
<path d="M249.562 106.283L249.549 106.241L249.536 106.198C244.953 91.4424 238.668 78.2253 230.578 66.6834L230.545 66.6356L230.511 66.5881C222.436 55.2931 213.173 45.6712 202.692 37.8347C192.343 29.9758 181.272 23.9495 169.492 19.848L165.402 31.5959L169.492 19.848C157.87 15.8018 146.247 13.6285 134.671 13.4588C124.089 13.3037 113.242 15.7683 102.268 20.3468C91.2021 24.9632 80.5724 31.5996 70.3632 40.0758C59.9954 48.5644 50.6863 58.816 42.3961 70.7224C33.8108 82.8382 26.9449 96.3889 21.7484 111.297C16.4265 126.565 13.6314 142.963 13.2529 160.402C13.0307 170.635 19.4636 177.52 26.6892 181.38L26.8031 181.441L26.9181 181.5C33.0959 184.638 40.6891 186.749 49.1832 188.18C57.2427 189.699 66.322 190.892 76.381 191.781L76.4571 191.787L76.5333 191.793C86.6188 192.561 97.1311 193.023 108.067 193.183C133.665 193.558 155.59 193.577 173.819 193.236L173.863 193.235L173.906 193.234C192.133 192.765 207.307 191.44 219.173 189.122C228.839 187.251 237.632 184.09 244.272 178.735C251.403 172.985 255.503 165.101 255.704 155.816C256.094 137.875 254.114 121.318 249.562 106.283Z" stroke="black" stroke-width="25"/>
<ellipse cx="27.9537" cy="17.1787" rx="27.9537" ry="17.1787" transform="matrix(-0.922655 0.385627 -0.271375 -0.962474 203.456 89.0212)" fill="#F3FFD3"/>
<ellipse cx="27.4791" cy="16.8868" rx="27.4791" ry="16.8868" transform="matrix(-0.922628 -0.385691 0.271424 -0.96246 120.251 109.655)" fill="#F3FFD3"/>
<defs>
<radialGradient id="paint0_radial_241_175" cx="0" cy="0" r="1" gradientUnits="userSpaceOnUse" gradientTransform="translate(136.882 113.679) rotate(-1.15968) scale(119.011 122.324)">
<stop offset="0.71875" stop-opacity="0"/>
<stop offset="0.724771" stop-color="#28330B"/>
</radialGradient>
</defs>
</svg>
