<svg width="358" height="358" viewBox="0 0 358 358" fill="none" xmlns="http://www.w3.org/2000/svg">
<path d="M239.53 316.382C243.849 316.382 247.351 319.884 247.351 324.203C247.254 328.341 243.79 332.019 239.53 332.024H181.724C177.405 332.024 173.903 328.522 173.903 324.203C174.096 319.76 176.771 316.411 181.724 316.382H239.53ZM95.35 300.06C99.6687 300.06 103.171 303.562 103.171 307.881C103.086 312.483 99.7635 315.673 95.35 315.702H37.543C33.2242 315.702 29.7221 312.199 29.7221 307.881C29.8181 303.743 33.2299 300.115 37.543 300.06H95.35ZM31.422 136.84C37.6176 136.84 42.643 141.865 42.643 148.061C42.6536 154.569 37.6219 159.244 31.422 159.282H21.221C15.0255 159.282 10 154.256 10 148.061C10.0091 141.673 15.4364 136.888 21.221 136.84H31.422ZM158.602 25.9896C163.675 25.9896 167.783 30.0971 167.783 35.1704C167.634 40.4966 163.716 44.3178 158.602 44.3512H127.998C122.925 44.3512 118.818 40.2437 118.818 35.1704C118.876 30.3039 123.67 26.0212 127.998 25.9896H158.602Z" fill="#F8D46E"/>
<path d="M21.271 91.9406C15.0754 91.9406 10.05 96.9664 10.05 103.162C10.0138 109.459 15.4859 114.257 21.271 114.383H87.919C94.1145 114.383 99.14 119.408 99.14 125.604C99.0554 132.112 94.119 136.787 87.919 136.825H75.677C69.4815 136.825 64.456 141.851 64.456 148.047C64.5958 154.557 68.9931 159.064 75.677 159.268H87.918C94.1136 159.268 99.139 164.294 99.139 170.489C99.0946 176.787 94.8339 181.583 87.918 181.711H39.633C33.4374 181.711 28.412 186.737 28.412 192.932C28.5515 199.441 33.5411 204.276 39.633 204.153H87.919C94.1145 204.153 99.14 209.179 99.14 215.375C98.8261 221.726 93.7044 226.468 87.919 226.596H50.127C43.8363 226.596 38.498 231.744 38.613 238.035C38.7285 244.129 43.7067 249.039 49.834 249.039H148.072V91.7886L21.271 91.9406Z" fill="#F8D46E"/>
<path d="M102 168.822C102 199.061 112.278 226.898 129.526 249.04H148.637V91.7896L127.076 91.8559C111.312 113.444 102 140.044 102 168.821V168.822Z" fill="black" fill-opacity="0.1"/>
<path d="M232 284.982C296.065 284.982 348 233.047 348 168.982C348 104.917 296.065 52.9816 232 52.9816C167.935 52.9816 116 104.917 116 168.982C116 233.047 167.935 284.982 232 284.982Z" fill="#F0F0F0"/>
<path d="M116 168.982C116 104.917 167.935 52.9816 232 52.9816C296.065 52.9816 348 104.917 348 168.982H116Z" fill="#FE4566"/>
<path d="M116.34 159.982C116.112 162.952 115.996 165.953 115.996 168.982C115.996 172.692 116.17 176.361 116.511 179.982H347.481C347.822 176.361 347.996 172.692 347.996 168.982C347.996 165.953 347.88 162.952 347.652 159.982H116.342H116.34Z" fill="#606060"/>
<path d="M232 207.982C253.539 207.982 271 190.521 271 168.982C271 147.442 253.539 129.982 232 129.982C210.461 129.982 193 147.442 193 168.982C193 190.521 210.461 207.982 232 207.982Z" fill="#606060"/>
<path d="M193 168.982C193 190.521 210.461 207.982 232 207.982C244.703 207.982 255.988 201.908 263.109 192.506C261.119 192.819 259.078 192.982 257 192.982C235.461 192.982 218 175.521 218 153.982C218 145.146 220.938 136.997 225.891 130.458C207.254 133.39 193 149.521 193 168.982Z" fill="black" fill-opacity="0.1"/>
<path d="M232 189.982C243.598 189.982 253 180.58 253 168.982C253 157.384 243.598 147.982 232 147.982C220.402 147.982 211 157.384 211 168.982C211 180.58 220.402 189.982 232 189.982Z" fill="#F0F0F0"/>
<path d="M211 168.982C211 180.58 220.402 189.982 232 189.982C238.953 189.982 245.116 186.603 248.938 181.398C247.354 181.78 245.701 181.982 244 181.982C232.402 181.982 223 172.58 223 160.982C223 156.337 224.508 152.044 227.062 148.566C217.847 150.787 211 159.085 211 168.982Z" fill="black" fill-opacity="0.1"/>
<path d="M116 168.982C116 233.047 167.935 284.982 232 284.982C253.338 284.982 273.33 279.221 290.506 269.169C282.299 271.01 273.763 271.982 265 271.982C200.935 271.982 149 220.047 149 155.982C149 113.255 172.101 75.9226 206.494 55.7916C154.699 67.4126 116 113.677 116 168.982Z" fill="black" fill-opacity="0.1"/>
</svg>
