<svg width="150" height="38" viewBox="0 0 150 38" fill="none" xmlns="http://www.w3.org/2000/svg">
<path d="M28.5003 36.0584C29.0366 36.0584 29.4714 36.4932 29.4714 37.0295C29.4594 37.5434 29.0293 38.0001 28.5003 38.0006H21.3226C20.7863 38.0006 20.3515 37.5658 20.3515 37.0295C20.3755 36.4779 20.7077 36.062 21.3226 36.0584H28.5003ZM10.5977 34.0317C11.134 34.0317 11.5688 34.4665 11.5688 35.0028C11.5583 35.5743 11.1458 35.9704 10.5977 35.9739H3.41996C2.8837 35.9739 2.44885 35.539 2.44885 35.0028C2.46078 34.4891 2.88441 34.0386 3.41996 34.0317H10.5977ZM2.65993 13.765C3.42922 13.765 4.05322 14.3889 4.05322 15.1583C4.05453 15.9665 3.42976 16.5469 2.65993 16.5516H1.39329C0.624006 16.5516 0 15.9275 0 15.1583C0.00112386 14.3652 0.675027 13.771 1.39329 13.765H2.65993ZM18.4516 0.000976562C19.0815 0.000976562 19.5916 0.510997 19.5916 1.14094C19.5731 1.80228 19.0866 2.27675 18.4516 2.2809H14.6516C14.0217 2.2809 13.5117 1.77088 13.5117 1.14094C13.5189 0.536675 14.1142 0.00490027 14.6516 0.000976562H18.4516Z" fill="#F8D46E"/>
<path d="M1.39948 8.19002C0.630181 8.19002 0.00618673 8.81406 0.00618673 9.58331C0.00169135 10.3652 0.681152 10.9609 1.39948 10.9766H9.67503C10.4443 10.9766 11.0683 11.6006 11.0683 12.3699C11.0578 13.1781 10.4449 13.7585 9.67503 13.7632H8.15496C7.38568 13.7632 6.76167 14.3872 6.76167 15.1566C6.77903 15.965 7.32504 16.5245 8.15496 16.5499H9.6749C10.4442 16.5499 11.0682 17.1739 11.0682 17.9432C11.0627 18.7252 10.5336 19.3207 9.6749 19.3366H3.67945C2.91015 19.3366 2.28616 19.9606 2.28616 20.7299C2.30349 21.5381 2.92303 22.1384 3.67945 22.1232H9.67503C10.4443 22.1232 11.0683 22.7472 11.0683 23.5166C11.0293 24.3052 10.3934 24.894 9.67503 24.9099H4.98247C4.20136 24.9099 3.53852 25.5491 3.5528 26.3302C3.56714 27.0869 4.18527 27.6966 4.94609 27.6966H17.1441V8.17114L1.39948 8.19002Z" fill="#F8D46E"/>
<path d="M11.4235 17.7362C11.4235 21.4909 12.6997 24.9474 14.8413 27.6967H17.2143V8.17126L14.5371 8.17951C12.5797 10.86 11.4235 14.1629 11.4235 17.7361V17.7362Z" fill="black" fill-opacity="0.1"/>
<path d="M27.5653 32.1595C35.5201 32.1595 41.9688 25.7109 41.9688 17.756C41.9688 9.8012 35.5201 3.35254 27.5653 3.35254C19.6105 3.35254 13.1618 9.8012 13.1618 17.756C13.1618 25.7109 19.6105 32.1595 27.5653 32.1595Z" fill="#F0F0F0"/>
<path d="M13.1618 17.756C13.1618 9.8012 19.6105 3.35254 27.5653 3.35254C35.5201 3.35254 41.9688 9.8012 41.9688 17.756H13.1618Z" fill="#FE4566"/>
<path d="M13.204 16.6385C13.1757 17.0073 13.1613 17.38 13.1613 17.7561C13.1613 18.2167 13.1829 18.6723 13.2253 19.1219H41.9043C41.9467 18.6723 41.9683 18.2167 41.9683 17.7561C41.9683 17.38 41.9539 17.0073 41.9256 16.6385H13.2043H13.204Z" fill="#606060"/>
<path d="M27.5653 22.5986C30.2398 22.5986 32.4079 20.4305 32.4079 17.756C32.4079 15.0815 30.2398 12.9135 27.5653 12.9135C24.8909 12.9135 22.7228 15.0815 22.7228 17.756C22.7228 20.4305 24.8909 22.5986 27.5653 22.5986Z" fill="#606060"/>
<path d="M22.7228 17.756C22.7228 20.4304 24.8909 22.5985 27.5653 22.5985C29.1426 22.5985 30.5439 21.8443 31.4281 20.6769C31.181 20.7158 30.9276 20.736 30.6695 20.736C27.9951 20.736 25.827 18.5679 25.827 15.8935C25.827 14.7963 26.1918 13.7845 26.8068 12.9725C24.4927 13.3366 22.7228 15.3395 22.7228 17.756Z" fill="black" fill-opacity="0.1"/>
<path d="M27.5653 20.3635C29.0054 20.3635 30.1728 19.1961 30.1728 17.756C30.1728 16.3159 29.0054 15.1484 27.5653 15.1484C26.1252 15.1484 24.9578 16.3159 24.9578 17.756C24.9578 19.1961 26.1252 20.3635 27.5653 20.3635Z" fill="#F0F0F0"/>
<path d="M24.9578 17.756C24.9578 19.1961 26.1252 20.3635 27.5653 20.3635C28.4286 20.3635 29.1939 19.9439 29.6684 19.2976C29.4718 19.3451 29.2665 19.3701 29.0553 19.3701C27.6152 19.3701 26.4478 18.2027 26.4478 16.7626C26.4478 16.1859 26.635 15.6528 26.9521 15.2209C25.8079 15.4967 24.9578 16.5271 24.9578 17.756Z" fill="black" fill-opacity="0.1"/>
<path d="M13.1618 17.756C13.1618 25.7108 19.6105 32.1595 27.5653 32.1595C30.2148 32.1595 32.6972 31.4442 34.8299 30.196C33.8108 30.4246 32.7509 30.5453 31.6628 30.5453C23.708 30.5453 17.2593 24.0966 17.2593 16.1418C17.2593 10.8365 20.1278 6.20104 24.3983 3.70142C17.967 5.14437 13.1618 10.8889 13.1618 17.756Z" fill="black" fill-opacity="0.1"/>
<path d="M60.885 27.5V14.3H55.893V10.7H70.077V14.3H64.965V27.5H60.885ZM79.869 27.74C78.605 27.74 77.437 27.532 76.365 27.116C75.309 26.684 74.389 26.084 73.605 25.316C72.821 24.532 72.213 23.612 71.781 22.556C71.365 21.484 71.157 20.308 71.157 19.028C71.157 17.78 71.381 16.628 71.829 15.572C72.277 14.516 72.893 13.604 73.677 12.836C74.477 12.052 75.413 11.444 76.485 11.012C77.573 10.58 78.757 10.364 80.037 10.364C80.837 10.364 81.621 10.468 82.389 10.676C83.157 10.884 83.869 11.196 84.525 11.612C85.197 12.012 85.773 12.492 86.253 13.052L83.757 15.908C83.421 15.556 83.061 15.252 82.677 14.996C82.309 14.724 81.901 14.516 81.453 14.372C81.005 14.228 80.525 14.156 80.013 14.156C79.373 14.156 78.765 14.276 78.189 14.516C77.629 14.74 77.133 15.068 76.701 15.5C76.285 15.916 75.957 16.428 75.717 17.036C75.477 17.644 75.357 18.324 75.357 19.076C75.357 19.812 75.477 20.484 75.717 21.092C75.957 21.684 76.293 22.196 76.725 22.628C77.157 23.06 77.677 23.388 78.285 23.612C78.909 23.836 79.597 23.948 80.349 23.948C80.861 23.948 81.349 23.876 81.813 23.732C82.277 23.588 82.701 23.396 83.085 23.156C83.485 22.9 83.837 22.612 84.141 22.292L86.109 25.412C85.709 25.86 85.173 26.26 84.501 26.612C83.845 26.964 83.109 27.244 82.293 27.452C81.493 27.644 80.685 27.74 79.869 27.74ZM96.7011 27.74C95.3571 27.74 94.1411 27.524 93.0531 27.092C91.9651 26.66 91.0291 26.052 90.2451 25.268C89.4611 24.484 88.8611 23.564 88.4451 22.508C88.0291 21.436 87.8211 20.276 87.8211 19.028C87.8211 17.78 88.0371 16.636 88.4691 15.596C88.9171 14.54 89.5491 13.62 90.3651 12.836C91.1811 12.052 92.1411 11.444 93.2451 11.012C94.3651 10.58 95.5811 10.364 96.8931 10.364C97.8211 10.364 98.6931 10.484 99.5091 10.724C100.341 10.964 101.093 11.292 101.765 11.708C102.437 12.124 103.005 12.604 103.469 13.148L100.997 15.764C100.597 15.38 100.181 15.06 99.7491 14.804C99.3331 14.548 98.8851 14.348 98.4051 14.204C97.9251 14.044 97.4131 13.964 96.8691 13.964C96.1651 13.964 95.5171 14.092 94.9251 14.348C94.3491 14.604 93.8371 14.964 93.3891 15.428C92.9571 15.876 92.6211 16.412 92.3811 17.036C92.1411 17.644 92.0211 18.308 92.0211 19.028C92.0211 19.748 92.1491 20.42 92.4051 21.044C92.6611 21.668 93.0131 22.212 93.4611 22.676C93.9091 23.124 94.4371 23.484 95.0451 23.756C95.6691 24.012 96.3331 24.14 97.0371 24.14C97.5331 24.14 97.9971 24.06 98.4291 23.9C98.8771 23.74 99.2611 23.524 99.5811 23.252C99.9011 22.98 100.157 22.66 100.349 22.292C100.541 21.908 100.637 21.5 100.637 21.068V20.444L101.165 21.26H96.5331V18.068H104.429C104.461 18.244 104.485 18.484 104.501 18.788C104.517 19.092 104.525 19.388 104.525 19.676C104.541 19.964 104.549 20.18 104.549 20.324C104.549 21.412 104.349 22.412 103.949 23.324C103.565 24.22 103.021 24.996 102.317 25.652C101.613 26.308 100.781 26.82 99.8211 27.188C98.8611 27.556 97.8211 27.74 96.7011 27.74ZM112.091 27.764C110.987 27.764 110.003 27.484 109.139 26.924C108.291 26.348 107.619 25.564 107.123 24.572C106.627 23.564 106.379 22.42 106.379 21.14C106.379 19.86 106.627 18.724 107.123 17.732C107.619 16.724 108.299 15.932 109.163 15.356C110.027 14.78 111.019 14.492 112.139 14.492C112.715 14.492 113.267 14.58 113.795 14.756C114.323 14.932 114.803 15.172 115.235 15.476C115.667 15.78 116.019 16.132 116.291 16.532C116.563 16.916 116.723 17.316 116.771 17.732L115.859 17.948V9.74H119.723V27.5H116.147L115.931 24.596L116.699 24.716C116.651 25.116 116.491 25.5 116.219 25.868C115.963 26.236 115.627 26.564 115.211 26.852C114.795 27.124 114.315 27.34 113.771 27.5C113.243 27.676 112.683 27.764 112.091 27.764ZM113.075 24.572C113.667 24.572 114.179 24.428 114.611 24.14C115.043 23.852 115.371 23.452 115.595 22.94C115.835 22.428 115.955 21.828 115.955 21.14C115.955 20.436 115.835 19.828 115.595 19.316C115.371 18.804 115.043 18.404 114.611 18.116C114.179 17.828 113.667 17.684 113.075 17.684C112.483 17.684 111.971 17.828 111.539 18.116C111.123 18.404 110.795 18.804 110.555 19.316C110.315 19.828 110.195 20.436 110.195 21.14C110.195 21.828 110.315 22.428 110.555 22.94C110.795 23.452 111.123 23.852 111.539 24.14C111.971 24.428 112.483 24.572 113.075 24.572ZM129.042 27.74C127.634 27.74 126.41 27.46 125.37 26.9C124.33 26.324 123.522 25.548 122.946 24.572C122.37 23.58 122.082 22.452 122.082 21.188C122.082 20.212 122.242 19.316 122.562 18.5C122.882 17.684 123.33 16.98 123.906 16.388C124.482 15.78 125.162 15.316 125.946 14.996C126.746 14.66 127.618 14.492 128.562 14.492C129.458 14.492 130.274 14.652 131.01 14.972C131.762 15.292 132.41 15.74 132.954 16.316C133.498 16.892 133.914 17.572 134.202 18.356C134.49 19.14 134.618 19.996 134.586 20.924L134.562 21.956H124.41L123.858 19.796H131.442L131.034 20.252V19.772C131.002 19.372 130.874 19.02 130.65 18.716C130.442 18.396 130.162 18.148 129.81 17.972C129.458 17.796 129.058 17.708 128.61 17.708C127.986 17.708 127.45 17.836 127.002 18.092C126.57 18.332 126.242 18.692 126.018 19.172C125.794 19.636 125.682 20.212 125.682 20.9C125.682 21.604 125.826 22.22 126.114 22.748C126.418 23.26 126.85 23.66 127.41 23.948C127.986 24.236 128.666 24.38 129.45 24.38C129.994 24.38 130.474 24.3 130.89 24.14C131.322 23.98 131.786 23.708 132.282 23.324L134.082 25.868C133.586 26.3 133.058 26.652 132.498 26.924C131.938 27.196 131.362 27.396 130.77 27.524C130.194 27.668 129.618 27.74 129.042 27.74ZM144.81 27.5L142.098 23.396L140.85 21.644L135.81 14.756H140.418L143.034 18.668L144.402 20.54L149.37 27.5H144.81ZM135.69 27.5L140.826 20.348L142.89 22.82L140.226 27.5H135.69ZM144.114 21.956L142.074 19.508L144.594 14.756H149.13L144.114 21.956Z" fill="black"/>
</svg>
